<?xml version="1.0" standalone="no"?>
<!DOCTYPE svg PUBLIC "-//W3C//DTD SVG 20010904//EN"
 "http://www.w3.org/TR/2001/REC-SVG-20010904/DTD/svg10.dtd">
<svg version="1.0" xmlns="http://www.w3.org/2000/svg"
 width="497.000000pt" height="540.000000pt" viewBox="0 0 497.000000 540.000000"
 preserveAspectRatio="xMidYMid meet">
<metadata>
Created by potrace 1.16, written by Peter Selinger 2001-2019
</metadata>
<g transform="translate(0.000000,540.000000) scale(0.100000,-0.100000)"
fill="#000000" stroke="none">
<path d="M3218 5360 c-126 -32 -244 -97 -338 -187 l-46 -43 -79 40 c-325 164
-601 65 -622 -223 -10 -135 44 -285 169 -468 l66 -97 -23 -28 -22 -28 -40 17
c-91 42 -224 38 -318 -8 -70 -34 -147 -118 -176 -193 -34 -84 -33 -216 2 -292
23 -52 24 -57 10 -96 -12 -35 -12 -46 -1 -74 7 -18 25 -37 39 -44 28 -12 27
-7 35 -167 4 -104 24 -167 77 -249 21 -33 39 -62 39 -63 0 -1 -48 -2 -108 -2
-59 0 -138 -3 -177 -7 l-70 -7 29 22 c179 133 233 290 137 400 -24 27 -29 43
-33 102 -6 101 -44 180 -124 254 -141 133 -338 146 -550 36 -246 -126 -423
-369 -424 -581 0 -59 34 -163 69 -209 23 -31 28 -46 24 -72 -9 -52 6 -102 42
-142 32 -35 34 -41 33 -112 0 -98 27 -164 92 -222 62 -56 124 -78 238 -84 50
-3 92 -7 92 -8 0 -1 -11 -27 -24 -56 -13 -30 -29 -77 -36 -105 l-13 -52 -61 3
c-60 4 -61 4 -92 50 -46 68 -72 93 -139 137 -86 56 -179 82 -295 82 -189 0
-344 -78 -433 -219 -17 -27 -50 -72 -74 -98 -70 -80 -88 -138 -87 -297 0 -126
3 -142 33 -235 49 -147 114 -276 195 -384 33 -43 44 -70 58 -138 33 -167 154
-349 272 -411 44 -23 63 -27 141 -27 94 0 133 12 183 58 12 11 54 29 94 39 78
20 158 65 188 108 15 21 30 29 65 32 58 7 116 46 161 108 25 35 55 60 107 88
l72 40 45 -37 c61 -51 125 -93 186 -124 47 -24 53 -31 74 -89 83 -229 210
-397 353 -468 116 -57 237 -71 381 -45 103 18 114 11 138 -88 37 -151 132
-283 244 -340 138 -70 307 -55 433 37 27 20 55 36 63 36 48 0 120 34 162 75
62 62 87 133 94 261 7 162 -50 389 -143 560 -41 76 -42 82 -27 98 16 15 15 22
-5 102 -42 161 -118 284 -205 331 -24 13 -59 18 -128 20 -52 1 -136 5 -185 9
-71 5 -98 3 -128 -9 -20 -9 -37 -14 -37 -12 0 2 7 32 14 67 8 35 18 104 22
153 6 74 13 102 41 159 44 88 133 231 170 273 l28 32 100 -40 c55 -22 160 -69
233 -105 130 -63 133 -66 153 -112 11 -26 30 -57 42 -70 19 -20 21 -34 22
-135 0 -100 3 -118 27 -169 31 -66 91 -128 156 -160 36 -18 64 -23 119 -23
l72 0 30 -41 c107 -145 356 -181 443 -64 11 15 33 31 50 34 49 10 116 64 148
119 16 29 30 58 30 65 0 6 18 29 41 49 52 47 77 97 85 170 3 32 12 72 20 90
64 144 19 317 -121 459 -101 103 -258 173 -385 174 -42 1 -47 3 -71 44 -37 60
-96 87 -213 96 -85 6 -100 11 -216 67 -69 34 -178 80 -243 104 -87 31 -116 46
-112 57 3 7 5 20 5 28 0 11 17 14 78 14 238 0 415 140 446 351 6 39 12 49 36
59 41 17 117 102 142 158 30 66 35 167 13 248 -26 97 -101 203 -172 242 -14 8
-14 18 3 98 13 65 18 130 17 244 -2 293 -70 555 -194 737 -50 74 -197 214
-269 256 -139 81 -310 106 -462 67z m270 -85 c130 -31 238 -106 338 -236 198
-257 275 -664 209 -1104 -8 -54 -15 -107 -15 -117 0 -30 18 -20 40 22 11 22
24 40 29 40 5 0 25 -19 46 -41 92 -102 116 -240 62 -352 -24 -48 -79 -107
-100 -107 -3 0 -11 16 -17 35 -17 52 -92 129 -149 154 -29 12 -73 22 -106 22
-48 1 -56 5 -60 23 -28 138 -40 187 -66 281 -45 158 -109 319 -194 482 l-73
143 62 62 c51 52 67 75 84 128 30 91 36 157 22 226 -25 120 -88 202 -193 249
-51 24 -68 27 -140 23 -102 -4 -173 -35 -248 -107 -29 -28 -55 -51 -58 -51 -3
0 -19 11 -35 24 l-30 23 60 47 c71 57 179 110 260 130 78 19 194 19 272 1z
m-906 -124 c42 -11 103 -33 135 -50 74 -37 237 -157 328 -242 201 -188 392
-480 515 -789 45 -112 46 -120 25 -120 -45 0 -138 75 -194 158 -22 32 -22 33
-5 84 48 147 -6 264 -128 276 -47 4 -52 8 -77 50 -91 158 -306 390 -424 461
-70 41 -159 77 -214 86 -63 10 -54 -9 20 -46 180 -91 335 -223 455 -391 34
-47 62 -89 62 -92 0 -2 -26 7 -57 21 -32 14 -96 38 -142 53 -69 23 -87 33 -99
56 -8 16 -21 35 -30 42 -23 17 -83 15 -112 -6 -28 -18 -132 -129 -191 -202
l-36 -44 -37 49 c-57 78 -134 242 -152 325 -54 254 96 388 358 321z m808 -12
c103 -47 151 -123 158 -250 7 -136 -38 -249 -120 -299 l-31 -19 -39 54 c-21
29 -38 56 -38 60 0 4 21 5 48 4 l47 -3 8 89 c21 258 23 295 10 295 -7 0 -54
-18 -104 -41 -106 -46 -109 -45 -109 44 0 34 -4 57 -11 57 -6 0 -49 -29 -95
-65 -47 -36 -89 -63 -94 -60 -26 16 82 112 157 140 58 21 160 18 213 -6z
m-220 -179 c0 -27 4 -51 8 -54 5 -3 42 8 81 25 40 17 75 28 78 25 5 -5 -35
-193 -46 -213 -4 -8 -38 23 -94 87 -48 55 -92 100 -97 100 -19 0 -10 24 22 57
17 18 35 30 40 27 4 -3 8 -27 8 -54z m-465 -403 c8 -11 20 -44 26 -74 7 -29
16 -53 20 -53 8 0 39 92 39 117 0 7 7 13 15 13 36 0 295 -106 295 -121 0 -4
-9 -10 -20 -14 -25 -8 -120 -82 -120 -94 0 -5 38 -6 85 -3 169 10 245 -56 245
-216 0 -46 2 -53 18 -48 12 4 24 -5 41 -30 55 -80 173 -154 247 -154 35 0 54
-43 30 -69 -29 -32 -109 -60 -199 -70 -101 -12 -146 -29 -175 -66 -27 -33 -29
-100 -6 -133 13 -19 14 -28 4 -53 -41 -98 18 -202 115 -202 55 0 86 19 181
107 96 89 164 126 243 133 81 7 138 -11 187 -61 51 -51 69 -107 60 -191 -12
-121 -90 -221 -205 -267 -44 -17 -77 -22 -156 -22 -107 -1 -164 14 -236 61
l-36 24 -51 -35 c-93 -62 -232 -96 -397 -96 -83 0 -96 -3 -160 -35 -237 -118
-447 -68 -548 132 -15 29 -38 56 -59 67 -127 72 -212 193 -232 327 -7 45 -6
47 22 57 26 9 29 7 39 -18 22 -58 112 -82 169 -45 25 16 27 16 53 -9 14 -13
42 -32 61 -41 l35 -16 -66 5 c-36 3 -78 10 -92 17 -15 7 -30 10 -33 6 -12 -12
8 -46 36 -59 17 -7 32 -23 35 -38 4 -14 24 -62 45 -107 103 -220 266 -275 393
-134 61 68 106 199 107 311 0 38 8 61 36 98 1 2 20 -2 42 -9 23 -6 56 -9 76
-5 44 8 104 59 122 103 14 32 20 154 8 165 -3 4 -37 -4 -74 -17 -95 -32 -212
-49 -290 -41 -91 10 -113 16 -101 30 6 7 2 20 -12 38 l-22 27 -60 -29 c-107
-53 -213 -63 -338 -31 -94 25 -147 51 -204 104 -62 57 -85 107 -91 195 -10
153 81 274 226 302 152 28 342 -81 422 -244 18 -36 34 -66 35 -66 18 0 65 25
62 34 -32 87 -32 81 1 124 42 52 90 155 98 209 7 49 -9 98 -37 113 -36 20 -94
11 -136 -19 -40 -29 -90 -86 -112 -129 -7 -13 -15 -21 -18 -18 -6 6 61 107
130 195 74 93 146 120 182 68z m-61 -143 c9 -8 16 -24 16 -35 0 -20 -15 -26
-25 -9 -20 32 -100 -8 -147 -75 -28 -40 -58 -59 -58 -37 0 20 75 116 112 142
46 33 79 38 102 14z m-4 -98 c0 -22 -3 -24 -38 -19 -36 5 -41 2 -79 -41 -42
-48 -62 -52 -38 -7 15 30 83 96 105 103 24 8 50 -11 50 -36z m-42 -82 c-5 -26
-38 -31 -38 -7 0 24 21 46 33 34 5 -5 7 -17 5 -27z m-1099 -316 c98 -37 175
-137 188 -246 l5 -47 -60 -1 -60 -1 -11 37 c-21 72 -125 190 -147 167 -3 -3
15 -47 40 -97 43 -85 57 -140 38 -140 -5 0 -33 -15 -64 -33 l-55 -34 -26 53
c-32 65 -93 134 -118 134 -11 0 -19 -2 -19 -4 0 -3 18 -37 39 -78 22 -40 45
-93 51 -118 10 -42 9 -49 -14 -90 -16 -29 -26 -60 -26 -87 0 -37 -3 -43 -24
-49 -43 -10 -60 -1 -68 39 -18 88 -113 217 -159 217 -11 0 -19 -2 -19 -6 0 -3
18 -35 40 -71 47 -78 73 -151 73 -207 0 -31 -6 -45 -27 -63 -15 -13 -36 -23
-48 -23 -37 0 -89 33 -136 86 -64 73 -88 73 -58 -1 25 -60 66 -104 122 -131
87 -42 156 -21 195 60 19 37 24 42 50 38 15 -2 43 1 60 7 28 9 39 7 85 -15 45
-22 61 -25 101 -19 66 10 112 30 151 67 35 35 44 65 15 53 -131 -56 -181 -64
-238 -41 -82 35 -45 144 72 213 58 34 154 63 209 63 60 0 103 -38 111 -98 16
-120 -102 -235 -321 -311 -106 -37 -112 -41 -95 -52 22 -14 121 -10 174 6 27
8 51 12 53 10 8 -8 -37 -70 -65 -91 -96 -71 -219 -106 -373 -107 -115 -1 -192
16 -251 56 -36 24 -79 91 -66 103 4 4 26 -1 49 -12 45 -20 185 -27 190 -10 2
5 -28 19 -67 31 -112 34 -171 78 -212 160 -111 217 94 559 405 675 114 43 210
45 311 8z m2185 -265 c19 -86 19 -83 3 -83 -18 0 -102 -59 -182 -129 -71 -62
-112 -79 -159 -67 -47 12 -58 95 -19 139 15 16 15 19 -5 38 -30 27 -29 74 1
93 12 7 67 21 122 30 61 10 121 27 155 44 33 16 57 23 61 17 4 -5 14 -42 23
-82z m-1153 -252 c37 -23 32 -27 -51 -36 -64 -6 -65 -6 -35 10 16 9 34 23 38
31 10 18 10 18 48 -5z m179 -65 c0 -20 -9 -26 -67 -45 -171 -53 -341 -54 -351
-1 -2 12 15 15 95 17 106 2 217 18 273 39 48 17 50 17 50 -10z m-20 -115 c-17
-62 -49 -119 -85 -154 -59 -57 -126 -61 -192 -11 -27 20 -33 32 -33 62 0 53
23 82 65 82 40 0 170 24 205 39 42 17 49 14 40 -18z m-905 -175 c-192 -79
-233 -104 -316 -189 -79 -82 -129 -160 -129 -204 0 -29 -39 -37 -168 -31 -74
3 -107 9 -138 26 -71 37 -114 106 -114 185 0 31 -3 31 75 12 77 -19 221 -19
310 0 134 28 272 114 320 199 13 22 66 33 165 35 l75 1 -80 -34z m358 -15 c16
-13 12 -17 -45 -49 -76 -42 -185 -126 -338 -262 -168 -149 -252 -181 -319
-124 -23 19 -31 34 -31 58 0 45 7 48 40 15 100 -100 383 71 384 233 0 22 -7
45 -18 57 -11 12 -17 23 -15 25 13 12 165 60 224 71 71 12 75 12 118 -24z
m135 -168 c24 -23 64 -52 90 -64 42 -21 44 -23 24 -32 -16 -8 -33 -3 -79 23
-32 18 -94 49 -139 69 -44 20 -80 41 -81 46 0 6 21 22 46 37 l46 26 24 -31
c14 -18 45 -51 69 -74z m1182 77 c43 -22 46 -28 28 -53 -12 -15 -19 -14 -89 6
l-77 23 37 21 c45 28 53 28 101 3z m-1706 0 c31 -11 35 -53 11 -99 -50 -98
-230 -185 -279 -135 -20 20 -20 30 3 79 29 65 120 137 196 156 42 10 41 10 69
-1z m1191 -124 c-122 -96 -253 -247 -348 -402 -93 -151 -194 -227 -302 -227
-105 0 -177 76 -174 185 l1 43 10 -38 c32 -118 177 -162 291 -86 103 68 143
188 96 285 -24 50 -69 81 -131 93 l-43 7 74 38 c62 32 86 38 150 41 84 4 178
31 259 73 42 22 63 26 104 23 l52 -3 -39 -32z m370 10 c72 -19 189 -55 260
-80 142 -48 375 -145 375 -155 0 -4 -17 -15 -37 -26 -57 -31 -156 -134 -201
-211 -37 -64 -82 -176 -82 -206 0 -9 -40 6 -107 39 -177 86 -490 203 -545 203
-10 0 -18 -13 -23 -36 -7 -42 0 -50 57 -59 21 -4 40 -11 43 -16 10 -16 -35
-65 -73 -78 -20 -8 -76 -32 -125 -54 -48 -22 -88 -38 -90 -36 -1 2 -23 67 -49
143 -54 161 -57 142 41 274 124 167 249 280 351 315 60 21 57 22 205 -17z
m-1218 -10 c43 -18 106 -47 141 -65 l63 -32 -59 -43 c-143 -105 -217 -266
-181 -393 18 -66 96 -144 161 -162 64 -18 152 -10 213 19 29 13 80 54 121 96
l71 72 42 -131 c22 -73 41 -137 41 -144 0 -25 20 -22 96 13 44 20 93 42 110
49 l31 13 -54 -106 c-41 -81 -53 -115 -53 -151 0 -131 -51 -338 -108 -446 -46
-85 -155 -186 -252 -233 -117 -57 -194 -76 -315 -76 -188 1 -367 75 -518 216
l-48 45 -124 -61 c-106 -52 -125 -65 -135 -92 -12 -36 -55 -79 -89 -89 -20 -6
-23 -4 -18 9 4 9 12 58 18 109 27 221 -22 636 -106 891 -18 56 -31 103 -30
104 2 2 20 -1 40 -8 43 -14 89 -51 126 -103 23 -32 30 -36 35 -23 3 9 4 30 2
47 -4 27 1 34 40 61 240 165 541 72 726 -224 l47 -77 35 16 c19 9 34 22 34 29
0 22 -101 167 -158 226 -69 73 -166 138 -252 169 -53 20 -84 24 -170 24 -124
0 -185 -16 -280 -74 -60 -36 -65 -37 -68 -19 -5 28 35 154 69 219 l30 56 47
-24 c39 -20 57 -24 104 -20 32 3 77 14 100 26 24 11 117 88 208 171 91 82 170
150 177 150 6 0 47 -15 90 -34z m355 -235 c30 -27 33 -34 33 -88 0 -47 -5 -67
-25 -96 -76 -113 -225 -129 -267 -29 -44 105 57 242 179 242 39 0 54 -6 80
-29z m1803 -44 c52 -29 55 -49 12 -65 -36 -13 -74 -48 -64 -58 3 -3 29 -1 57
5 109 24 242 5 357 -50 87 -41 198 -150 236 -231 27 -56 48 -178 32 -178 -5 0
-19 10 -32 22 -32 30 -39 16 -20 -43 23 -70 22 -175 -1 -219 -25 -45 -38 -48
-46 -8 -7 37 -41 98 -55 98 -4 0 -8 -42 -7 -92 1 -121 -16 -179 -68 -232 -40
-40 -40 -41 -43 -16 -8 66 -15 88 -34 119 -27 45 -39 28 -39 -59 -1 -107 -48
-180 -128 -196 -64 -13 -208 53 -247 112 -16 25 -16 27 0 43 15 15 17 15 30
-2 9 -13 20 -16 39 -11 37 9 40 20 16 58 -26 44 -79 90 -131 117 -44 22 -54
19 -64 -21 -5 -22 -1 -28 29 -43 46 -21 45 -33 -1 -46 -91 -26 -185 -3 -235
57 -47 56 -61 110 -56 214 6 111 31 191 94 300 52 92 54 104 15 84 -41 -22
-94 -86 -131 -163 -30 -61 -34 -65 -46 -48 -57 77 -16 253 89 385 126 158 324
234 442 167z m-3562 -42 c145 -30 254 -119 328 -268 176 -349 227 -1015 92
-1195 -24 -32 -76 -64 -124 -75 l-26 -7 4 88 c6 99 -7 201 -41 317 -13 44 -29
130 -35 192 -20 199 -89 429 -170 568 -82 142 -234 244 -376 253 -85 5 -86 10
-8 63 101 70 225 92 356 64z m-221 -223 c196 -96 321 -362 378 -802 7 -47 21
-116 32 -155 24 -85 35 -281 19 -340 -12 -47 -64 -101 -107 -114 l-29 -8 30
61 c28 55 30 69 30 166 0 85 -5 122 -27 195 -14 50 -29 124 -33 165 -15 178
-75 402 -143 537 -42 82 -139 185 -206 218 -71 35 -144 42 -200 21 -44 -17
-76 -51 -76 -82 0 -13 6 -11 30 10 105 88 292 0 399 -188 62 -107 127 -347
151 -551 5 -49 17 -115 25 -145 23 -82 30 -205 15 -275 -9 -44 -21 -68 -46
-93 -31 -31 -38 -33 -71 -27 -56 10 -86 29 -137 85 -82 93 -172 308 -136 330
7 4 65 13 129 20 64 6 136 15 161 19 45 7 45 7 20 21 -36 20 -240 18 -298 -4
l-42 -15 -35 47 c-116 159 -215 409 -231 577 -11 122 27 244 98 312 47 45 73
53 160 50 62 -3 89 -10 140 -35z m2657 -781 c79 -41 151 -148 255 -381 114
-257 156 -412 156 -572 0 -263 -131 -432 -344 -446 -138 -8 -254 65 -320 201
-20 40 -38 88 -41 107 l-6 35 65 1 c122 3 209 65 267 189 40 84 52 162 46 280
-14 239 -110 445 -238 509 -29 14 -64 26 -78 26 -26 1 -26 1 -6 16 69 55 175
70 244 35z m218 -22 c45 -28 99 -118 130 -217 l26 -83 -21 -15 c-21 -14 -21
-15 26 -92 63 -103 116 -239 143 -363 17 -81 21 -123 17 -213 -5 -121 -20
-171 -66 -219 -53 -57 -62 -53 -36 17 80 220 44 457 -125 840 -80 181 -131
275 -177 326 -19 20 -30 40 -26 44 11 11 73 -3 109 -25z m-380 -128 c76 -55
130 -166 158 -327 33 -190 6 -338 -80 -433 -44 -49 -117 -75 -181 -65 -69 10
-74 19 -31 60 37 35 46 54 27 54 -6 0 -56 -13 -111 -30 -277 -82 -447 -55
-592 93 -56 57 -79 92 -129 194 -33 68 -59 126 -56 129 3 2 39 -1 79 -7 146
-23 319 6 467 78 79 39 213 155 252 219 44 70 128 85 197 35z"/>
<path d="M2980 4261 c-50 -16 -86 -40 -136 -93 -69 -73 -108 -155 -112 -239
-5 -84 10 -130 54 -169 97 -85 270 9 366 199 29 59 33 75 33 148 0 73 -3 84
-25 108 -44 49 -113 66 -180 46z m122 -52 c11 -6 26 -26 34 -44 19 -47 18 -62
-3 -42 -50 44 -129 22 -201 -57 -77 -84 -114 -205 -82 -267 8 -15 7 -19 -4
-19 -22 0 -63 54 -70 93 -19 104 74 275 177 326 45 23 116 27 149 10z m16
-107 c6 -9 12 -30 12 -46 -1 -26 -2 -28 -11 -13 -15 26 -75 22 -115 -8 -75
-57 -113 -177 -70 -223 18 -21 18 -21 -10 -28 -22 -6 -31 -2 -46 16 -73 90 94
351 207 323 11 -3 26 -12 33 -21z m-42 -107 c4 -8 1 -22 -6 -30 -18 -21 -50
-19 -50 3 0 36 45 57 56 27z"/>
<path d="M3661 3349 c-65 -26 -141 -115 -141 -166 0 -33 10 -29 60 22 60 61
89 59 110 -7 8 -27 18 -48 22 -48 22 0 29 102 7 116 -5 3 -9 12 -9 20 0 22 88
18 128 -6 40 -24 42 -25 42 -2 0 20 -31 52 -67 71 -26 13 -119 14 -152 0z"/>
<path d="M1700 2861 c0 -20 -55 -73 -99 -96 -36 -18 -42 -25 -29 -30 28 -11
85 14 118 51 29 33 41 84 20 84 -5 0 -10 -4 -10 -9z"/>
<path d="M2428 2534 c-3 -5 -8 -21 -11 -35 -10 -38 -44 -77 -89 -100 -50 -25
-39 -43 17 -28 48 13 92 59 101 104 6 32 -8 77 -18 59z"/>
<path d="M4360 2337 c0 -57 130 -106 146 -55 11 35 -35 68 -97 68 -34 0 -49
-4 -49 -13z"/>
<path d="M4263 2240 c9 -44 33 -74 73 -96 l36 -19 18 23 c30 36 9 74 -55 103
-61 28 -79 25 -72 -11z"/>
<path d="M4156 2154 c-18 -46 5 -134 37 -147 23 -9 57 21 57 49 0 30 -14 60
-43 92 -24 26 -42 28 -51 6z"/>
</g>
</svg>
